# xmcd CD database file
#
# Track frame offsets:
#	150
#	11148
#	21527
#	32799
#	44617
#	57642
#	70946
#	82682
#	95524
#	110021
#	122519
#	135386
#	150112
#	162959
#	176536
#	191117
#	204733
#	218310
#	232928
#	247529
#
# Disc length: 3474 seconds
#
# Revision: 0
# Processed by: cddbd v1.5.2PL0 Copyright (c) Steve Scherf et al.
# Submitted via: CDex 1.51
#
DISCID=030d9014
DTITLE=Bix Beiderbecke - The Absolutely Essential CD1
DYEAR=2015
DGENRE=Jazz
TTITLE0=Fidgety Feet
TTITLE1=Oh Baby
TTITLE2=Copenhagen
TTITLE3=Susie (of The Islands)
TTITLE4=I Need Some Pettin'
TTITLE5=Royal Garden Blues
TTITLE6=Tiger Rag
TTITLE7=Big Boy
TTITLE8=I'm Glad
TTITLE9=Toddlin' Blues
TTITLE10=Davenport Blues
TTITLE11=I'm Looking Over A Four Leaf Clover
TTITLE12=I'm Gonna Meet My Sweetie Now
TTITLE13=Trumbology
TTITLE14=Clarinet Marmalade
TTITLE15=Singin' The Blues
TTITLE16=Slow River
TTITLE17=Riverboat Shuffle
TTITLE18=I'm Coming, Virginia
TTITLE19=Way Down Yonder In New Orleans
EXTD=YEAR: 2015
EXTT0=
EXTT1=
EXTT2=
EXTT3=
EXTT4=
EXTT5=
EXTT6=
EXTT7=
EXTT8=
EXTT9=
EXTT10=
EXTT11=
EXTT12=
EXTT13=
EXTT14=
EXTT15=
EXTT16=
EXTT17=
EXTT18=
EXTT19=
PLAYORDER=
